<svg xmlns="http://www.w3.org/2000/svg" width="1200" height="850" viewBox="0 0 1200 850"><defs><filter id="s" x="-30%" y="-30%" width="160%" height="160%"><feDropShadow dx="0" dy="6" stdDeviation="7" flood-color="#000" flood-opacity=".22"/></filter><linearGradient id="b" x1="0" y1="0" x2="1" y2="1"><stop stop-color="#2991FF"/><stop offset=".6" stop-color="#126BFF"/><stop offset="1" stop-color="#084BCB"/></linearGradient><linearGradient id="i" x1="0" y1="0" x2="1" y2="1"><stop stop-color="#FFFFFF"/><stop offset="1" stop-color="#C5CFDD"/></linearGradient></defs><rect width="100%" height="100%" fill="#FFFFFF"/><g transform="translate(70 55) scale(0.85)" filter="url(#s)"><path fill="url(#b)" d="M0 30 96 8 48 82 57 43 13 54Z"/><path fill="#0C57E6" d="M0 30 13 54 48 43 96 8Z" opacity=".9"/><path fill="#0750D8" d="M48 82 57 43 48 43 36 96Z"/><path fill="url(#i)" d="M31 55 55 48 36 96 20 101 20 68Z"/><path fill="#D6DEEA" d="M20 68 31 55 36 96 20 101Z"/></g><text x="170" y="99.2" font-family="Arial, Helvetica, sans-serif" font-size="34.2" font-weight="700" letter-spacing="3.15" fill="#0B1320">TRAZIO</text><text x="171.8" y="109.802" font-family="Arial, Helvetica, sans-serif" font-size="7.2" font-weight="600" letter-spacing="1.8" fill="#126BFF">DIGITAL GROWTH STUDIO</text><path d="M70 185h1060" stroke="#126BFF" stroke-width="3"/><text x="70" y="260" font-family="Arial" font-size="17" font-weight="700" fill="#0B1320">ORAZIO FINOCCHIARO</text><text x="70" y="292" font-family="Arial" font-size="15" fill="#AEB8C8">TRAZIO S.r.l. · Via Arosio 1, 20093 Cologno Monzese · +39 347 749 7861</text><text x="70" y="320" font-family="Arial" font-size="15" fill="#AEB8C8">info@trazio.it · www.trazio.it</text><path d="M70 710h1060" stroke="#E9EEF5" stroke-width="2"/><text x="70" y="750" font-family="Arial" font-size="12" fill="#AEB8C8">TRAZIO S.r.l. · Via Arosio 1, 20093 Cologno Monzese · info@trazio.it · www.trazio.it</text></svg>