<svg xmlns="http://www.w3.org/2000/svg" width="1050" height="600" viewBox="0 0 1050 600"><defs><filter id="s" x="-30%" y="-30%" width="160%" height="160%"><feDropShadow dx="0" dy="6" stdDeviation="7" flood-color="#000" flood-opacity=".22"/></filter><linearGradient id="b" x1="0" y1="0" x2="1" y2="1"><stop stop-color="#2991FF"/><stop offset=".6" stop-color="#126BFF"/><stop offset="1" stop-color="#084BCB"/></linearGradient><linearGradient id="i" x1="0" y1="0" x2="1" y2="1"><stop stop-color="#FFFFFF"/><stop offset="1" stop-color="#C5CFDD"/></linearGradient></defs><rect width="100%" height="100%" fill="#FFFFFF"/><text x="90" y="145" font-family="Arial" font-size="31" font-weight="700" fill="#0B1320">ORAZIO FINOCCHIARO</text><text x="90" y="187" font-family="Arial" font-size="18" letter-spacing="2" fill="#126BFF">DIGITAL GROWTH PARTNER</text><path d="M90 232h870" stroke="#E9EEF5" stroke-width="3"/><text x="90" y="306" font-family="Arial" font-size="23" fill="#0B1320">+39 347 749 7861</text><text x="90" y="351" font-family="Arial" font-size="23" fill="#0B1320">info@trazio.it</text><text x="90" y="396" font-family="Arial" font-size="23" fill="#0B1320">www.trazio.it</text><g transform="translate(815 320) scale(1.2)" filter="url(#s)"><path fill="url(#b)" d="M0 30 96 8 48 82 57 43 13 54Z"/><path fill="#0C57E6" d="M0 30 13 54 48 43 96 8Z" opacity=".9"/><path fill="#0750D8" d="M48 82 57 43 48 43 36 96Z"/><path fill="url(#i)" d="M31 55 55 48 36 96 20 101 20 68Z"/><path fill="#D6DEEA" d="M20 68 31 55 36 96 20 101Z"/></g></svg>